# xmcd
#
# Track frame offsets: 
#        150
#        15352
#        32086
#        47115
#        59592
#        76647
#        94355
#        106083
#        119893
#        134827
#        146966
#        160987
#
# Disc length: 2349 seconds
#
# Revision: 3
# Processed by: cddbd v1.5.2PL0 Copyright (c) Steve Scherf et al.
# Submitted via: ExactAudioCopyFreeDBPlugin 1.0
#
DISCID=ab092b0c
DTITLE=Delbert McClinton - Prick of the Litter
DYEAR=2017
DGENRE=Rhythm and Blues
TTITLE0=Don't Do It
TTITLE1=Doin' What You Do
TTITLE2=Middle of Nowhere
TTITLE3=Skip Chaser
TTITLE4=San Miguel
TTITLE5=Pulling The Strings
TTITLE6=Neva
TTITLE7=Like Lovin' Used to Be
TTITLE8=Jones for You
TTITLE9=The Hunt is On
TTITLE10=Bad Haircut
TTITLE11=Rosy
EXTD=
EXTT0=
EXTT1=
EXTT2=
EXTT3=
EXTT4=
EXTT5=
EXTT6=
EXTT7=
EXTT8=
EXTT9=
EXTT10=
EXTT11=
PLAYORDER=
